# xmcd CD database file
#
# Track frame offsets:
#	150
#	14025
#	27423
#	38983
#	50868
#	64293
#	75515
#	88155
#	100705
#	115063
#	128100
#	142480
#
# Disc length: 2094 seconds
#
# Revision: 1
# Processed by: cddbd v1.5.1PL0 Copyright (c) Steve Scherf et al.
# Submitted via: CDex 1.51
#
DISCID=af082c0c
DTITLE=Patti Page - Golden Hits
DYEAR=1960
DGENRE=Popular
TTITLE0=Tennessee Waltz
TTITLE1=Changing Partners
TTITLE2=Cross Over The Bridge
TTITLE3=Old Cape Cod
TTITLE4=Mockin' Bird Hill
TTITLE5=(How Much Is) That Doggie In The Window
TTITLE6=Detour
TTITLE7=Why Don't You Believe Me
TTITLE8=Mister And Mississippi
TTITLE9=Allegheny Moon
TTITLE10=With My Eyes Wide Open I'm Dreaming
TTITLE11=I Went To Your Wedding
EXTD=Mercury (P) 1960 (C) 1994 YEAR: 1960
EXTT0=
EXTT1=
EXTT2=
EXTT3=
EXTT4=
EXTT5=
EXTT6=
EXTT7=
EXTT8=
EXTT9=
EXTT10=
EXTT11=
PLAYORDER=
